<svg xmlns="http://www.w3.org/2000/svg" width="1080" height="1920" viewBox="0 0 1080 1920">
<rect width="100%" height="100%" fill="#090C13"/>
<rect x="54.0" y="96.0" width="874.8" height="1478.4" fill="none" stroke="#26344A" stroke-width="2" stroke-dasharray="12 10"/>
<rect x="54.0" y="299.3" width="874.8" height="1084.6" fill="none" stroke="#26344A" stroke-width="1" stroke-dasharray="4 8" opacity="0.6"/>
<rect x="0.0" y="1574.4" width="1080.0" height="345.6" fill="#FF5C55" opacity="0.10"/>
<rect x="928.8" y="0.0" width="151.2" height="1920.0" fill="#FF5C55" opacity="0.10"/>
<rect x="54.0" y="1215.9" width="874.8" height="173.9" rx="14" fill="#331617" fill-opacity="0.55" stroke="#FF5C55" stroke-width="3"/>
<text x="491.4" y="1311.2" font-size="24" fill="#FF5C55" font-family="DejaVu Sans" font-weight="bold" text-anchor="middle">bytes_moved</text>
<rect x="54.0" y="926.9" width="874.8" height="244.7" rx="14" fill="#33240F" fill-opacity="0.55" stroke="#F0A431" stroke-width="3"/>
<text x="491.4" y="1057.6" font-size="24" fill="#F0A431" font-family="DejaVu Sans" font-weight="bold" text-anchor="middle">firewall</text>
<rect x="54.0" y="373.0" width="874.8" height="244.7" rx="14" fill="#221B38" fill-opacity="0.55" stroke="#B79CF0" stroke-width="3"/>
<text x="491.4" y="503.7" font-size="24" fill="#B79CF0" font-family="DejaVu Sans" font-weight="bold" text-anchor="middle">mempool</text>
<rect x="54.0" y="96.0" width="874.8" height="244.7" rx="14" fill="#0F2A20" fill-opacity="0.55" stroke="#4DE6A0" stroke-width="3"/>
<text x="491.4" y="226.7" font-size="24" fill="#4DE6A0" font-family="DejaVu Sans" font-weight="bold" text-anchor="middle">nic</text>
<rect x="54.0" y="649.9" width="874.8" height="244.7" rx="14" fill="#33240F" fill-opacity="0.55" stroke="#F0A431" stroke-width="3"/>
<text x="491.4" y="780.6" font-size="24" fill="#F0A431" font-family="DejaVu Sans" font-weight="bold" text-anchor="middle">parser</text>
<rect x="54.0" y="1400.5" width="874.8" height="173.9" rx="14" fill="#332B10" fill-opacity="0.55" stroke="#F5D14F" stroke-width="3"/>
<text x="491.4" y="1495.9" font-size="24" fill="#F5D14F" font-family="DejaVu Sans" font-weight="bold" text-anchor="middle">pointer_moved</text>
<rect x="54.0" y="191.0" width="874.8" height="60.8" fill="#141B27" fill-opacity="0.35" rx="8"/>
<text x="491.4" y="232.0" font-size="30" fill="#9AA6BC" font-family="DejaVu Sans" font-weight="normal" text-anchor="middle">KEYWORD</text>
<rect x="54.0" y="1431.4" width="874.8" height="48.0" fill="#141B27" fill-opacity="0.35" rx="8"/>
<text x="491.4" y="1463.8" font-size="24" fill="#9AA6BC" font-family="DejaVu Sans" font-weight="normal" text-anchor="middle">CAPTION</text>
<text x="24" y="1900" font-size="18" fill="#9AA6BC" font-family="DejaVu Sans Mono">shot_0120_pointer_not_copy  ·  9x16  ·  1080x1920  ·  reels  ·  reveal 1/2</text>
</svg>